# xmcd
#
# Track frame offsets:
#  150
#  10652
#  22759
#  43749
#  71190
#  87026
#  102714
#  117050
#  128775
#  150779
#  174294
#  186757
#  203445
#  216567
#  232116
#  240359
#  251791
#  262243
#  276953
#
# Disc length: 3863 seconds
#
# Revision: 0
# Processed by: cddbd v1.5.1PL2 Copyright (c) Steve Scherf et al.
# Submitted via: Collectorz.com_Music_Collector 6.11
#
DISCID=030f1513
DTITLE=Randy Newman - Dutch Radio and Live
DYEAR=1900
DGENRE=Alt Country
TTITLE0=Birmingham
TTITLE1=Sail Away
TTITLE2=Miss You
TTITLE3=This Is My Country
TTITLE4=Great Nations Of Europe
TTITLE5=The World Isn't Fair
TTITLE6=Guilty
TTITLE7=Short People (Live)
TTITLE8=Miss You (Live)
TTITLE9=I'm Dead But I Don't Know It (Live)
TTITLE10=Guilty (Live)
TTITLE11=In Germany Before The War (Live)
TTITLE12=Bad News From Home (Live)
TTITLE13=Rider In The Rain (Live)
TTITLE14=Daytonn, Ohio 1903 (Live)
TTITLE15=Same Girl (Live)
TTITLE16=Lonely At The Top (Live)
TTITLE17=God's Song (That's Why I Love Mankind) (Live)
TTITLE18=I Think It's Going To Rain Today (Live)
EXTD=
EXTT0=
EXTT1=
EXTT2=
EXTT3=
EXTT4=
EXTT5=
EXTT6=
EXTT7=
EXTT8=
EXTT9=
EXTT10=
EXTT11=
EXTT12=
EXTT13=
EXTT14=
EXTT15=
EXTT16=
EXTT17=
EXTT18=
PLAYORDER=
